<?xml version="1.0" encoding="UTF-8" standalone="no"?>
<svg
   xmlns:dc="http://purl.org/dc/elements/1.1/"
   xmlns:cc="http://creativecommons.org/ns#"
   xmlns:rdf="http://www.w3.org/1999/02/22-rdf-syntax-ns#"
   xmlns:svg="http://www.w3.org/2000/svg"
   xmlns="http://www.w3.org/2000/svg"
   xmlns:sodipodi="http://sodipodi.sourceforge.net/DTD/sodipodi-0.dtd"
   xmlns:inkscape="http://www.inkscape.org/namespaces/inkscape"
   version="1.0"
   width="729.000000pt"
   height="775.000000pt"
   viewBox="0 0 729.000000 775.000000"
   preserveAspectRatio="xMidYMid meet"
   id="svg12"
   sodipodi:docname="dataplus_logo.svg"
   inkscape:version="0.92.4 (5da689c313, 2019-01-14)">
  <metadata
     id="metadata18">
    <rdf:RDF>
      <cc:Work
         rdf:about="">
        <dc:format>image/svg+xml</dc:format>
        <dc:type
           rdf:resource="http://purl.org/dc/dcmitype/StillImage" />
      </cc:Work>
    </rdf:RDF>
  </metadata>
  <defs
     id="defs16" />
  <sodipodi:namedview
     pagecolor="#ffffff"
     bordercolor="#666666"
     borderopacity="1"
     objecttolerance="10"
     gridtolerance="10"
     guidetolerance="10"
     inkscape:pageopacity="0"
     inkscape:pageshadow="2"
     inkscape:window-width="983"
     inkscape:window-height="791"
     id="namedview14"
     showgrid="false"
     inkscape:zoom="0.45677419"
     inkscape:cx="650.69207"
     inkscape:cy="668.92943"
     inkscape:window-x="0"
     inkscape:window-y="0"
     inkscape:window-maximized="0"
     inkscape:current-layer="svg12" />
  <g
     transform="translate(0.000000,775.000000) scale(0.100000,-0.100000)"
     fill="#000000"
     stroke="none"
     id="g10">
    <path
       d="M4026 7574 c-277 -55 -486 -208 -608 -444 -73 -140 -108 -341 -74 -421 12 -28 16 -31 21 -16 10 24 23 21 27 -5 2 -17 9 -22 25 -20 16 2 23 -4 28 -26 11 -52 57 -83 164 -112 104 -28 196 -42 331 -49 122 -6 125 -7 128 -30 l4 -24 -104 7 c-151 10 -381 51 -430 77 -10 5 -18 7 -18 3 0 -13 94 -164 102 -164 4 0 8 -5 8 -11 0 -20 -20 3 -90 101 -69 97 -163 200 -183 200 -17 0 1 -86 34 -165 71 -170 217 -325 383 -405 112 -53 163 -68 279 -80 275 -28 548 89 711 304 204 268 227 596 64 889 -24 42 -58 96 -77 120 -39 47 -142 139 -193 170 -62 38 -171 77 -269 97 -111 23 -166 24 -263 4z m170 -73 c161 -35 278 -92 379 -185 66 -61 62 -77 -5 -21 -122 102 -322 185 -447 185 -149 0 -235 -33 -373 -143 -157 -125 -251 -274 -276 -439 -16 -104 -50 -101 -40 3 26 283 265 538 555 593 89 18 116 23 117 25 0 0 41 -8 90 -18z m219 -191 c35 -67 56 -192 35 -205 -12 -8 -14 -3 -35 110 -9 53 -27 108 -42 135 l-26 45 25 -25 c14 -14 33 -41 43 -60z m-188 9 c55 -26 77 -73 98 -209 9 -58 22 -124 30 -147 9 -27 10 -43 3 -45 -5 -2 -8 -14 -6 -26 3 -22 8 -20 93 36 50 33 126 90 169 126 93 78 117 82 169 33 42 -40 77 -139 84 -244 3 -40 10 -70 14 -67 12 7 11 4 -6 -47 -9 -24 -34 -71 -57 -104 -47 -70 -83 -91 -208 -125 -47 -12 -103 -28 -124 -34 l-39 -12 -38 -118 c-43 -133 -81 -200 -121 -217 -14 -6 -34 -19 -44 -30 -11 -12 -30 -19 -55 -19 l-38 0 6 38 c2 20 11 72 19 116 18 99 28 297 16 314 -5 8 -59 15 -162 22 -175 11 -228 19 -393 61 -97 24 -197 61 -197 72 0 1 91 2 202 2 216 0 297 10 431 52 58 18 77 28 77 42 0 55 -79 225 -171 367 -33 50 -59 100 -59 111 0 29 39 60 90 72 62 14 166 4 217 -20z m-347 -239 c30 -49 34 -57 12 -33 -28 33 -84 127 -64 108 6 -5 29 -39 52 -75z m60 -105 c0 -5 -5 -3 -10 5 -5 8 -10 20 -10 25 0 6 5 3 10 -5 5 -8 10 -19 10 -25z"
       id="path2"
       style="fill:#00bfff" />
    <path
       d="M4766 6832 c-14 -44 -110 -103 -206 -126 -19 -5 -133 -34 -180 -46 -63 -17 -105 -78 -65 -94 15 -5 54 10 66 27 3 5 10 9 15 10 5 1 8 5 7 9 -2 4 14 10 35 14 20 3 69 14 107 24 197 52 231 74 242 160 6 41 -10 57 -21 22z"
       id="path4"
       style="fill:#00bfff" />
    <path
       d="M4766 6683 c-44 -23 -130 -51 -244 -79 -138 -34 -184 -65 -207 -143 -9 -31 -37 -118 -62 -194 -47 -141 -48 -163 -7 -155 35 6 122 205 148 336 l12 55 95 22 c204 47 306 99 297 152 -3 20 -4 21 -32 6z"
       id="path6"
       style="fill:#00bfff" />
    <path
       d="M2870 5665 c-8 -2 -49 -8 -90 -14 -503 -71 -787 -157 -1115 -337 -111 -60 -326 -197 -357 -226 -7 -7 -31 -26 -52 -42 -96 -72 -259 -227 -357 -338 -35 -40 -66 -75 -69 -78 -3 -3 -28 -34 -55 -70 -288 -375 -464 -792 -542 -1280 -27 -174 -25 -597 5 -772 93 -545 299 -977 654 -1375 396 -444 947 -762 1523 -878 289 -59 262 -58 1633 -62 l1262 -4 -1 153 c-1 84 -3 145 -6 135 -5 -19 2 -19 -180 9 -275 42 -477 197 -560 428 -41 118 -44 159 -43 735 0 304 5 584 10 622 30 208 110 315 280 371 61 20 93 22 520 29 465 7 512 10 678 54 108 27 202 65 322 126 343 177 615 492 734 851 62 184 71 249 71 483 -1 186 -4 221 -24 305 -53 215 -143 411 -256 561 -151 199 -308 331 -520 436 -167 83 -253 111 -470 155 l-110 22 -1435 2 c-789 1 -1442 1 -1450 -1z m1275 -118 c330 0 755 4 945 8 425 9 522 2 814 -61 271 -58 571 -245 743 -461 74 -93 133 -180 133 -197 0 -6 -15 12 -32 40 -142 220 -379 409 -643 515 -120 47 -441 125 -580 139 -188 19 -694 8 -855 -19 -113 -19 -165 -21 -540 -21 -372 0 -428 2 -540 21 -361 59 -753 43 -1095 -46 -286 -74 -644 -227 -885 -377 -439 -273 -763 -634 -982 -1096 -105 -220 -180 -479 -220 -757 -20 -136 -16 -503 5 -645 49 -317 146 -608 289 -865 66 -118 178 -288 228 -345 41 -48 96 -125 83 -117 -16 10 -149 178 -204 257 -229 330 -364 676 -436 1115 -24 151 -24 493 0 655 48 318 140 611 265 841 220 407 512 725 895 974 320 208 692 346 1147 425 l165 29 350 -6 c193 -3 620 -6 950 -6z m-286 -301 c17 -34 41 -103 53 -152 l23 -89 0 -2070 0 -2070 -23 -89 c-43 -172 -131 -307 -232 -358 -109 -56 -171 -63 -545 -63 -283 0 -358 3 -449 18 -299 51 -589 164 -782 305 -102 76 -335 307 -399 396 -11 16 -29 40 -41 55 -31 39 -104 149 -104 157 0 3 42 -49 92 -117 95 -126 326 -367 429 -446 89 -68 260 -167 366 -211 198 -82 379 -121 658 -142 182 -14 483 -1 594 25 189 45 316 185 373 412 l23 88 0 2070 c0 1988 -1 2073 -19 2150 -23 100 -55 173 -107 245 l-40 55 49 -53 c28 -30 64 -82 81 -116z m-434 119 c171 -45 254 -132 308 -323 l21 -77 3 -2002 c3 -1757 2 -2015 -12 -2105 -32 -214 -114 -315 -296 -365 -93 -26 -572 -25 -704 0 -177 34 -392 118 -565 220 -164 95 -418 332 -554 515 -432 583 -614 1412 -485 2202 117 712 495 1332 1020 1673 242 157 522 255 789 277 150 12 402 4 475 -15z m2140 -18 c295 -98 560 -393 675 -753 59 -184 65 -230 64 -469 0 -214 -1 -223 -32 -338 -99 -373 -354 -669 -667 -774 -78 -27 -86 -27 -366 -31 -319 -4 -374 3 -480 60 -112 59 -182 159 -217 310 -15 66 -17 152 -17 853 0 706 2 786 17 847 37 141 92 219 192 268 103 51 176 59 481 56 262 -2 272 -3 350 -29z m519 -123 c3 -8 2 -12 -4 -9 -6 3 -10 10 -10 16 0 14 7 11 14 -7z m90 -105 c119 -143 234 -390 288 -617 26 -113 36 -441 18 -576 -56 -409 -309 -809 -620 -979 -161 -89 -330 -111 -787 -105 -360 5 -371 7 -479 83 -72 52 -116 100 -144 158 l-21 42 22 -30 c47 -63 136 -142 190 -167 125 -59 135 -60 498 -58 343 1 418 8 536 47 205 67 447 280 579 509 91 158 144 302 181 494 21 104 20 430 -1 550 -38 223 -140 468 -266 637 -80 109 -79 113 6 12z m636 -334 c0 -5 -5 -3 -10 5 -5 8 -10 20 -10 25 0 6 5 3 10 -5 5 -8 10 -19 10 -25z m-5536 -3332 c9 -18 14 -33 12 -33 -6 0 -36 55 -36 66 0 11 5 3 24 -33z m56 -107 c0 -12 -5 -7 -19 24 -11 24 -11 24 3 6 9 -11 16 -24 16 -30z m24 -32 c3 -8 2 -12 -4 -9 -6 3 -10 10 -10 16 0 14 7 11 14 -7z m3124 -625 c33 -52 133 -148 204 -195 102 -68 212 -102 391 -120 37 -3 70 -11 73 -16 13 -20 -272 21 -365 53 -29 10 -77 34 -105 53 -63 42 -173 157 -204 214 -27 49 -23 56 6 11z"
       id="path8"
       style="fill:#00bfff" />
  </g>
  <path
     style="fill:#00bfff;stroke-width:4.37853098"
     d="M 311.29661,993.76144 C 234.12695,973.70264 181.25569,942.44037 126.28104,884.36345 85.192996,840.95675 56.426981,789.44013 41.644774,732.7896 29.435263,685.99856 28.241632,609.6286 39.030526,565.52687 71.124123,434.33797 173.27451,330.28336 305.44435,294.1467 c 35.8134,-9.79177 40.79706,-9.98003 264.18559,-9.98003 h 227.68362 l 25.12931,10.14861 c 37.13222,14.99605 64.32793,35.36166 87.04507,65.18401 62.1835,81.63263 48.98805,202.06765 -29.15524,266.1002 -46.49952,38.10287 -90.4369,50.20384 -182.84816,50.35897 -58.24852,0.0978 -72.38605,4.62271 -86.43579,27.66513 -7.76896,12.74144 -8.54856,22.50443 -8.56345,107.23588 -0.0131,83.03775 0.89344,94.99236 8.31457,109.46328 15.01552,29.27963 38.46653,44.63505 78.14505,51.1683 17.65817,2.90747 18.60875,3.82718 18.60875,18.00399 v 14.93996 l -178.42514,-0.2154 c -172.53954,-0.208 -179.72503,-0.553 -217.83192,-10.45816 z m 177.30704,-14.50975 c 9.38893,-4.69751 19.54007,-15.26899 26.27119,-27.35903 l 10.96979,-19.70339 1.21912,-282.00524 c 1.31513,-304.21333 0.84186,-311.45092 -21.68284,-331.5688 -9.04289,-8.07664 -9.0372,-7.94349 0.46215,10.8083 9.51508,18.78288 9.64521,21.93966 12.18568,295.55084 2.28914,246.55087 1.80089,279.19186 -4.4993,300.76873 -12.80098,43.84101 -35.61768,56.56528 -101.52662,56.61879 -46.59681,0.0394 -89.47093,-9.46761 -127.82195,-28.33877 -25.02129,-12.31208 -38.745,-23.31866 -66.7726,-53.55228 -19.40308,-20.9303 -35.27833,-35.78675 -35.27833,-33.01435 0,2.7724 15.90672,21.84506 35.34826,42.3837 56.02792,59.18964 99.77728,76.26158 196.71389,76.76196 47.95678,0.24738 61.99737,-1.13938 74.41156,-7.35046 z m 177.27122,1.31286 c -27.82977,-6.82342 -40.1284,-13.20412 -57.93278,-30.05621 -7.82662,-7.40804 -14.23023,-11.49877 -14.23023,-9.09058 0,8.21951 29.51743,33.00975 46.52089,39.0706 9.33227,3.3265 23.864,5.9168 32.29267,5.75619 14.23461,-0.27103 13.76151,-0.6753 -6.65055,-5.68 z m -190.2639,-17.7873 c 26.53841,-13.72359 26.1524,-9.02368 26.14496,-318.33577 -0.004,-259.31137 -0.60928,-282.64277 -7.66243,-296.47486 -11.62842,-22.80473 -26.73172,-31.56755 -58.85279,-34.14592 -159.37454,-12.79306 -289.23049,135.21496 -288.98886,329.38551 0.13192,106.00722 30.28396,187.54352 94.25908,254.89269 23.77651,25.03048 38.37549,35.99284 65.98355,49.54693 19.49852,9.57278 46.28871,19.2693 59.53377,21.54789 33.4111,5.74779 92.78225,2.27136 109.58272,-6.41647 z M 126.09393,847.90254 C 64.187409,769.63131 40.846277,663.73514 64.110045,566.68842 88.102736,466.60091 154.30034,385.53057 249.99718,339.03769 c 78.46274,-38.11996 132.70237,-47.86863 219.64235,-39.47708 42.57513,4.10941 77.87183,4.57091 129.60329,1.69456 129.46634,-7.19855 177.05129,-2.40165 229.13576,23.09847 23.38727,11.45024 48.35926,32.52164 69.1275,58.32998 l 12.33209,15.32485 -10.28775,-19.17677 C 887.17604,355.76529 857.62625,328.79721 828.53717,314.0227 786.83788,292.8434 764.09951,290.89008 558.68362,290.84117 382.69512,290.79926 365.38856,291.46813 331,299.64077 227.37069,324.26887 154.03953,373.30142 100.45321,453.79485 37.604139,548.2021 28.479079,676.52384 77.209327,780.66345 c 14.779246,31.58419 50.474983,83.65858 57.345923,83.65858 2.48888,0 -1.31872,-7.38877 -8.46132,-16.41949 z m 53.16841,5.28432 c -1.42602,-3.71615 -3.53182,-5.81758 -4.67956,-4.66983 -1.14773,1.14774 -0.78804,4.18824 0.79933,6.75664 4.31745,6.98577 6.84093,5.62864 3.88023,-2.08681 z m -5.88946,-12.68833 c 0,-1.06197 -1.97034,-3.1486 -4.37853,-4.63695 -2.40819,-1.48835 -4.37853,-0.61947 -4.37853,1.93085 0,2.55032 1.97034,4.63695 4.37853,4.63695 2.40819,0 4.37853,-0.86888 4.37853,-1.93085 z M 763.61135,648.88746 c 21.60433,-5.45795 57.19347,-35.20107 74.02682,-61.86684 19.81736,-31.3927 27.54262,-61.824 27.54262,-108.49561 0,-34.256 -2.10563,-48.70161 -10.44954,-71.68883 -9.74967,-26.86002 -32.05755,-66.29709 -35.53458,-62.82002 -0.84856,0.84855 6.68781,18.104 16.74749,38.34544 l 18.2903,36.80262 v 55.19216 c 0,53.58065 -0.42165,56.04834 -14.43544,84.51473 -7.93951,16.12742 -23.68724,38.57437 -34.99502,49.88212 -29.43003,29.43007 -50.96518,37.69488 -104.5394,40.12044 -55.67832,2.52081 -72.26766,-0.55386 -90.80491,-16.82975 -17.16761,-15.07338 -22.31532,-16.43405 -15.74783,-4.16256 7.89581,14.75343 26.78287,23.9629 54.52231,26.58548 34.2638,3.23942 91.40783,0.47606 115.37718,-5.57938 z m 0.19178,-22.85523 c 90.88486,-46.05474 107.01344,-189.18551 30.65326,-272.0265 -28.3752,-30.78348 -50.0347,-38.84836 -104.41684,-38.87949 -35.79103,-0.0205 -49.20304,1.70395 -60.54974,7.78515 -25.11171,13.45849 -27.03231,24.1929 -26.92473,150.48611 0.0854,100.23426 1.00128,114.88055 8.17108,130.66587 11.98527,26.38726 27.58886,32.35428 84.92209,32.47535 41.39648,0.0874 49.79402,-1.20731 68.1451,-10.50649 z"
     id="path3724"
     inkscape:connector-curvature="0"
     transform="scale(0.74999999)" />
</svg>
